<?xml version="1.0" encoding="UTF-8" standalone="no"?>
<!-- Created with Inkscape (http://www.inkscape.org/) -->
<svg xmlns:dc="http://purl.org/dc/elements/1.1/" xmlns:cc="http://creativecommons.org/ns#" xmlns:rdf="http://www.w3.org/1999/02/22-rdf-syntax-ns#" xmlns:svg="http://www.w3.org/2000/svg" xmlns="http://www.w3.org/2000/svg" xmlns:xlink="http://www.w3.org/1999/xlink" xmlns:sodipodi="http://sodipodi.sourceforge.net/DTD/sodipodi-0.dtd" xmlns:inkscape="http://www.inkscape.org/namespaces/inkscape" width="310.26474" height="158.63606" id="svg5448" sodipodi:version="0.32" inkscape:version="0.48.2 r9819" version="1.0" sodipodi:docname="Transmission_line_element.svg">
  <defs id="defs5450">
    <marker inkscape:stockid="Arrow1Mend" orient="auto" refY="0" refX="0" id="Arrow1Mend" style="overflow:visible">
      <path id="path3643" d="M 0,0 5,-5 -12.5,0 5,5 0,0 z" style="fill-rule:evenodd;stroke:#000000;stroke-width:1pt;marker-start:none" transform="matrix(-0.4,0,0,-0.4,-4,0)" inkscape:connector-curvature="0"/>
    </marker>
    <marker inkscape:stockid="TriangleOutM" orient="auto" refY="0" refX="0" id="TriangleOutM" style="overflow:visible">
      <path id="path3551" d="m 5.77,0 -8.65,5 0,-10 8.65,5 z" style="fill-rule:evenodd;stroke:#000000;stroke-width:1pt;marker-start:none" transform="scale(0.4,0.4)" inkscape:connector-curvature="0"/>
    </marker>
    <marker inkscape:stockid="TriangleOutS" orient="auto" refY="0" refX="0" id="TriangleOutS" style="overflow:visible">
      <path id="path3548" d="m 5.77,0 -8.65,5 0,-10 8.65,5 z" style="fill-rule:evenodd;stroke:#000000;stroke-width:1pt;marker-start:none" transform="scale(0.2,0.2)" inkscape:connector-curvature="0"/>
    </marker>
    <marker inkscape:stockid="Arrow2Mend" orient="auto" refY="0" refX="0" id="Arrow2Mend" style="overflow:visible">
      <path id="path3625" style="font-size:12px;fill-rule:evenodd;stroke-width:0.625;stroke-linejoin:round" d="M 8.7185878,4.0337352 -2.2072895,0.01601326 8.7185884,-4.0017078 c -1.7454984,2.3720609 -1.7354408,5.6174519 -6e-7,8.035443 z" transform="scale(-0.6,-0.6)" inkscape:connector-curvature="0"/>
    </marker>
    <marker inkscape:stockid="Arrow2Send" orient="auto" refY="0" refX="0" id="Arrow2Send" style="overflow:visible">
      <path id="path3619" style="font-size:12px;fill-rule:evenodd;stroke-width:0.625;stroke-linejoin:round" d="M 8.7185878,4.0337352 -2.2072895,0.01601326 8.7185884,-4.0017078 c -1.7454984,2.3720609 -1.7354408,5.6174519 -6e-7,8.035443 z" transform="matrix(-0.3,0,0,-0.3,0.69,0)" inkscape:connector-curvature="0"/>
    </marker>
    <marker inkscape:stockid="Arrow1Send" orient="auto" refY="0" refX="0" id="Arrow1Send" style="overflow:visible">
      <path id="path3637" d="M 0,0 5,-5 -12.5,0 5,5 0,0 z" style="fill-rule:evenodd;stroke:#000000;stroke-width:1pt;marker-start:none" transform="matrix(-0.2,0,0,-0.2,-1.2,0)" inkscape:connector-curvature="0"/>
    </marker>
    <radialGradient r="21.449848" fy="314.35028" fx="329.58322" cy="314.35028" cx="329.58322" gradientTransform="matrix(1,0,0,1.000003,0,-8.404081e-4)" gradientUnits="userSpaceOnUse" id="radialGradient4524" xlink:href="#linearGradient4423" inkscape:collect="always"/>
    <radialGradient r="21.449848" fy="314.35028" fx="329.58322" cy="314.35028" cx="329.58322" gradientTransform="matrix(1,0,0,1.000003,0,-8.404081e-4)" gradientUnits="userSpaceOnUse" id="radialGradient4522" xlink:href="#linearGradient4423" inkscape:collect="always"/>
    <radialGradient r="21.449848" fy="314.35028" fx="329.58322" cy="314.35028" cx="329.58322" gradientTransform="matrix(1,0,0,1.000003,0,-8.404081e-4)" gradientUnits="userSpaceOnUse" id="radialGradient4520" xlink:href="#linearGradient4423" inkscape:collect="always"/>
    <radialGradient r="21.449848" fy="314.35028" fx="329.58322" cy="314.35028" cx="329.58322" gradientTransform="matrix(1,0,0,1.000003,0,-8.404081e-4)" gradientUnits="userSpaceOnUse" id="radialGradient4518" xlink:href="#linearGradient4423" inkscape:collect="always"/>
    <radialGradient r="21.449848" fy="314.35028" fx="329.58322" cy="314.35028" cx="329.58322" gradientTransform="matrix(1,0,0,1.000003,0,-8.404081e-4)" gradientUnits="userSpaceOnUse" id="radialGradient4516" xlink:href="#linearGradient4423" inkscape:collect="always"/>
    <radialGradient r="21.449848" fy="314.35028" fx="329.58322" cy="314.35028" cx="329.58322" gradientTransform="matrix(1,0,0,1.000003,0,-8.404081e-4)" gradientUnits="userSpaceOnUse" id="radialGradient4514" xlink:href="#linearGradient4423" inkscape:collect="always"/>
    <radialGradient r="21.449848" fy="314.35028" fx="329.58322" cy="314.35028" cx="329.58322" gradientTransform="matrix(1,0,0,1.000003,0,-8.404081e-4)" gradientUnits="userSpaceOnUse" id="radialGradient4512" xlink:href="#linearGradient4423" inkscape:collect="always"/>
    <radialGradient r="21.449848" fy="314.35028" fx="329.58322" cy="314.35028" cx="329.58322" gradientTransform="matrix(1,0,0,1.000003,0,-8.404081e-4)" gradientUnits="userSpaceOnUse" id="radialGradient4510" xlink:href="#linearGradient4423" inkscape:collect="always"/>
    <radialGradient r="21.449848" fy="314.35028" fx="329.58322" cy="314.35028" cx="329.58322" gradientTransform="matrix(1,0,0,1.000003,0,-8.404081e-4)" gradientUnits="userSpaceOnUse" id="radialGradient4508" xlink:href="#linearGradient4423" inkscape:collect="always"/>
    <radialGradient r="21.449848" fy="314.35028" fx="329.58322" cy="314.35028" cx="329.58322" gradientTransform="matrix(1,0,0,1.000003,0,-8.404081e-4)" gradientUnits="userSpaceOnUse" id="radialGradient4506" xlink:href="#linearGradient4423" inkscape:collect="always"/>
    <radialGradient r="21.449848" fy="314.35028" fx="329.58322" cy="314.35028" cx="329.58322" gradientTransform="matrix(1,0,0,1.000003,0,-8.404081e-4)" gradientUnits="userSpaceOnUse" id="radialGradient4504" xlink:href="#linearGradient4423" inkscape:collect="always"/>
    <radialGradient r="21.449848" fy="314.35028" fx="329.58322" cy="314.35028" cx="329.58322" gradientTransform="matrix(1,0,0,1.000003,0,-8.404081e-4)" gradientUnits="userSpaceOnUse" id="radialGradient4502" xlink:href="#linearGradient4423" inkscape:collect="always"/>
    <linearGradient inkscape:collect="always" id="linearGradient4423">
      <stop style="stop-color:#ff6600;stop-opacity:1;" offset="0" id="stop4425"/>
      <stop style="stop-color:#ff6600;stop-opacity:0;" offset="1" id="stop4427"/>
    </linearGradient>
    <marker inkscape:stockid="Arrow1Mend" orient="auto" refY="0" refX="0" id="marker3497" style="overflow:visible">
      <path id="path3499" d="M 0,0 5,-5 -12.5,0 5,5 0,0 z" style="fill-rule:evenodd;stroke:#000000;stroke-width:1pt;marker-start:none" transform="matrix(-0.4,0,0,-0.4,-4,0)" inkscape:connector-curvature="0"/>
    </marker>
    <marker inkscape:stockid="TriangleOutM" orient="auto" refY="0" refX="0" id="marker3501" style="overflow:visible">
      <path id="path3503" d="m 5.77,0 -8.65,5 0,-10 8.65,5 z" style="fill-rule:evenodd;stroke:#000000;stroke-width:1pt;marker-start:none" transform="scale(0.4,0.4)" inkscape:connector-curvature="0"/>
    </marker>
    <marker inkscape:stockid="TriangleOutS" orient="auto" refY="0" refX="0" id="marker3505" style="overflow:visible">
      <path id="path3507" d="m 5.77,0 -8.65,5 0,-10 8.65,5 z" style="fill-rule:evenodd;stroke:#000000;stroke-width:1pt;marker-start:none" transform="scale(0.2,0.2)" inkscape:connector-curvature="0"/>
    </marker>
    <marker inkscape:stockid="Arrow2Mend" orient="auto" refY="0" refX="0" id="marker3509" style="overflow:visible">
      <path id="path3511" style="font-size:12px;fill-rule:evenodd;stroke-width:0.625;stroke-linejoin:round" d="M 8.7185878,4.0337352 -2.2072895,0.01601326 8.7185884,-4.0017078 c -1.7454984,2.3720609 -1.7354408,5.6174519 -6e-7,8.035443 z" transform="scale(-0.6,-0.6)" inkscape:connector-curvature="0"/>
    </marker>
    <marker inkscape:stockid="Arrow2Send" orient="auto" refY="0" refX="0" id="marker3513" style="overflow:visible">
      <path id="path3515" style="font-size:12px;fill-rule:evenodd;stroke-width:0.625;stroke-linejoin:round" d="M 8.7185878,4.0337352 -2.2072895,0.01601326 8.7185884,-4.0017078 c -1.7454984,2.3720609 -1.7354408,5.6174519 -6e-7,8.035443 z" transform="matrix(-0.3,0,0,-0.3,0.69,0)" inkscape:connector-curvature="0"/>
    </marker>
    <marker inkscape:stockid="Arrow1Send" orient="auto" refY="0" refX="0" id="marker3517" style="overflow:visible">
      <path id="path3519" d="M 0,0 5,-5 -12.5,0 5,5 0,0 z" style="fill-rule:evenodd;stroke:#000000;stroke-width:1pt;marker-start:none" transform="matrix(-0.2,0,0,-0.2,-1.2,0)" inkscape:connector-curvature="0"/>
    </marker>
    <marker style="overflow:visible" id="marker2063" refX="0" refY="0" orient="auto" inkscape:stockid="Arrow1Send">
      <path transform="matrix(-0.2,0,0,-0.2,-1.2,0)" style="fill-rule:evenodd;stroke:#000000;stroke-width:1pt;marker-start:none" d="M 0,0 5,-5 -12.5,0 5,5 0,0 z" id="path2065" inkscape:connector-curvature="0"/>
    </marker>
    <marker style="overflow:visible" id="marker2059" refX="0" refY="0" orient="auto" inkscape:stockid="Arrow2Send">
      <path transform="matrix(-0.3,0,0,-0.3,0.69,0)" d="M 8.7185878,4.0337352 -2.2072895,0.01601326 8.7185884,-4.0017078 c -1.7454984,2.3720609 -1.7354408,5.6174519 -6e-7,8.035443 z" style="font-size:12px;fill-rule:evenodd;stroke-width:0.625;stroke-linejoin:round" id="path2061" inkscape:connector-curvature="0"/>
    </marker>
    <marker style="overflow:visible" id="marker2055" refX="0" refY="0" orient="auto" inkscape:stockid="Arrow2Mend">
      <path transform="scale(-0.6,-0.6)" d="M 8.7185878,4.0337352 -2.2072895,0.01601326 8.7185884,-4.0017078 c -1.7454984,2.3720609 -1.7354408,5.6174519 -6e-7,8.035443 z" style="font-size:12px;fill-rule:evenodd;stroke-width:0.625;stroke-linejoin:round" id="path2057" inkscape:connector-curvature="0"/>
    </marker>
    <marker style="overflow:visible" id="marker2051" refX="0" refY="0" orient="auto" inkscape:stockid="TriangleOutS">
      <path transform="scale(0.2,0.2)" style="fill-rule:evenodd;stroke:#000000;stroke-width:1pt;marker-start:none" d="m 5.77,0 -8.65,5 0,-10 8.65,5 z" id="path2053" inkscape:connector-curvature="0"/>
    </marker>
    <marker style="overflow:visible" id="marker2047" refX="0" refY="0" orient="auto" inkscape:stockid="TriangleOutM">
      <path transform="scale(0.4,0.4)" style="fill-rule:evenodd;stroke:#000000;stroke-width:1pt;marker-start:none" d="m 5.77,0 -8.65,5 0,-10 8.65,5 z" id="path2049" inkscape:connector-curvature="0"/>
    </marker>
    <marker style="overflow:visible" id="marker2043" refX="0" refY="0" orient="auto" inkscape:stockid="Arrow1Mend">
      <path transform="matrix(-0.4,0,0,-0.4,-4,0)" style="fill-rule:evenodd;stroke:#000000;stroke-width:1pt;marker-start:none" d="M 0,0 5,-5 -12.5,0 5,5 0,0 z" id="path2045" inkscape:connector-curvature="0"/>
    </marker>
    <radialGradient r="21.449848" fy="314.35028" fx="329.58322" cy="314.35028" cx="329.58322" gradientTransform="matrix(1,0,0,1.000003,0,-8.404081e-4)" gradientUnits="userSpaceOnUse" id="radialGradient2355" xlink:href="#linearGradient4423" inkscape:collect="always"/>
    <radialGradient r="21.449848" fy="314.35028" fx="329.58322" cy="314.35028" cx="329.58322" gradientTransform="matrix(1,0,0,1.000003,0,-8.404081e-4)" gradientUnits="userSpaceOnUse" id="radialGradient2353" xlink:href="#linearGradient4423" inkscape:collect="always"/>
    <radialGradient r="21.449848" fy="314.35028" fx="329.58322" cy="314.35028" cx="329.58322" gradientTransform="matrix(1,0,0,1.000003,0,-8.404081e-4)" gradientUnits="userSpaceOnUse" id="radialGradient2351" xlink:href="#linearGradient4423" inkscape:collect="always"/>
    <radialGradient r="21.449848" fy="314.35028" fx="329.58322" cy="314.35028" cx="329.58322" gradientTransform="matrix(1,0,0,1.000003,0,-8.404081e-4)" gradientUnits="userSpaceOnUse" id="radialGradient2349" xlink:href="#linearGradient4423" inkscape:collect="always"/>
    <radialGradient r="21.449848" fy="314.35028" fx="329.58322" cy="314.35028" cx="329.58322" gradientTransform="matrix(1,0,0,1.000003,0,-8.404081e-4)" gradientUnits="userSpaceOnUse" id="radialGradient2347" xlink:href="#linearGradient4423" inkscape:collect="always"/>
    <radialGradient r="21.449848" fy="314.35028" fx="329.58322" cy="314.35028" cx="329.58322" gradientTransform="matrix(1,0,0,1.000003,0,-8.404081e-4)" gradientUnits="userSpaceOnUse" id="radialGradient2345" xlink:href="#linearGradient4423" inkscape:collect="always"/>
    <radialGradient r="21.449848" fy="314.35028" fx="329.58322" cy="314.35028" cx="329.58322" gradientTransform="matrix(1,0,0,1.000003,0,-8.404081e-4)" gradientUnits="userSpaceOnUse" id="radialGradient2343" xlink:href="#linearGradient4423" inkscape:collect="always"/>
    <radialGradient r="21.449848" fy="314.35028" fx="329.58322" cy="314.35028" cx="329.58322" gradientTransform="matrix(1,0,0,1.000003,0,-8.404081e-4)" gradientUnits="userSpaceOnUse" id="radialGradient2341" xlink:href="#linearGradient4423" inkscape:collect="always"/>
    <radialGradient r="21.449848" fy="314.35028" fx="329.58322" cy="314.35028" cx="329.58322" gradientTransform="matrix(1,0,0,1.000003,0,-8.404081e-4)" gradientUnits="userSpaceOnUse" id="radialGradient2339" xlink:href="#linearGradient4423" inkscape:collect="always"/>
    <radialGradient r="21.449848" fy="314.35028" fx="329.58322" cy="314.35028" cx="329.58322" gradientTransform="matrix(1,0,0,1.000003,0,-8.404081e-4)" gradientUnits="userSpaceOnUse" id="radialGradient2337" xlink:href="#linearGradient4423" inkscape:collect="always"/>
    <radialGradient r="21.449848" fy="314.35028" fx="329.58322" cy="314.35028" cx="329.58322" gradientTransform="matrix(1,0,0,1.000003,0,-8.404081e-4)" gradientUnits="userSpaceOnUse" id="radialGradient2335" xlink:href="#linearGradient4423" inkscape:collect="always"/>
    <radialGradient r="21.449848" fy="314.35028" fx="329.58322" cy="314.35028" cx="329.58322" gradientTransform="matrix(1,0,0,1.000003,0,-8.404081e-4)" gradientUnits="userSpaceOnUse" id="radialGradient2333" xlink:href="#linearGradient4423" inkscape:collect="always"/>
    <marker inkscape:stockid="Arrow1Mend" orient="auto" refY="0" refX="0" id="marker2323" style="overflow:visible">
      <path id="path2325" d="M 0,0 5,-5 -12.5,0 5,5 0,0 z" style="fill-rule:evenodd;stroke:#000000;stroke-width:1pt;marker-start:none" transform="matrix(-0.4,0,0,-0.4,-4,0)" inkscape:connector-curvature="0"/>
    </marker>
    <marker inkscape:stockid="TriangleOutM" orient="auto" refY="0" refX="0" id="marker2319" style="overflow:visible">
      <path id="path2321" d="m 5.77,0 -8.65,5 0,-10 8.65,5 z" style="fill-rule:evenodd;stroke:#000000;stroke-width:1pt;marker-start:none" transform="scale(0.4,0.4)" inkscape:connector-curvature="0"/>
    </marker>
    <marker inkscape:stockid="TriangleOutS" orient="auto" refY="0" refX="0" id="marker2315" style="overflow:visible">
      <path id="path2317" d="m 5.77,0 -8.65,5 0,-10 8.65,5 z" style="fill-rule:evenodd;stroke:#000000;stroke-width:1pt;marker-start:none" transform="scale(0.2,0.2)" inkscape:connector-curvature="0"/>
    </marker>
    <marker inkscape:stockid="Arrow2Mend" orient="auto" refY="0" refX="0" id="marker2311" style="overflow:visible">
      <path id="path2313" style="font-size:12px;fill-rule:evenodd;stroke-width:0.625;stroke-linejoin:round" d="M 8.7185878,4.0337352 -2.2072895,0.01601326 8.7185884,-4.0017078 c -1.7454984,2.3720609 -1.7354408,5.6174519 -6e-7,8.035443 z" transform="scale(-0.6,-0.6)" inkscape:connector-curvature="0"/>
    </marker>
    <marker inkscape:stockid="Arrow2Send" orient="auto" refY="0" refX="0" id="marker2307" style="overflow:visible">
      <path id="path2309" style="font-size:12px;fill-rule:evenodd;stroke-width:0.625;stroke-linejoin:round" d="M 8.7185878,4.0337352 -2.2072895,0.01601326 8.7185884,-4.0017078 c -1.7454984,2.3720609 -1.7354408,5.6174519 -6e-7,8.035443 z" transform="matrix(-0.3,0,0,-0.3,0.69,0)" inkscape:connector-curvature="0"/>
    </marker>
    <marker inkscape:stockid="Arrow1Send" orient="auto" refY="0" refX="0" id="marker2303" style="overflow:visible">
      <path id="path2305" d="M 0,0 5,-5 -12.5,0 5,5 0,0 z" style="fill-rule:evenodd;stroke:#000000;stroke-width:1pt;marker-start:none" transform="matrix(-0.2,0,0,-0.2,-1.2,0)" inkscape:connector-curvature="0"/>
    </marker>
    <marker style="overflow:visible" id="marker2299" refX="0" refY="0" orient="auto" inkscape:stockid="Arrow1Send">
      <path transform="matrix(-0.2,0,0,-0.2,-1.2,0)" style="fill-rule:evenodd;stroke:#000000;stroke-width:1pt;marker-start:none" d="M 0,0 5,-5 -12.5,0 5,5 0,0 z" id="path2301" inkscape:connector-curvature="0"/>
    </marker>
    <marker style="overflow:visible" id="marker2295" refX="0" refY="0" orient="auto" inkscape:stockid="Arrow2Send">
      <path transform="matrix(-0.3,0,0,-0.3,0.69,0)" d="M 8.7185878,4.0337352 -2.2072895,0.01601326 8.7185884,-4.0017078 c -1.7454984,2.3720609 -1.7354408,5.6174519 -6e-7,8.035443 z" style="font-size:12px;fill-rule:evenodd;stroke-width:0.625;stroke-linejoin:round" id="path2297" inkscape:connector-curvature="0"/>
    </marker>
    <marker style="overflow:visible" id="marker2291" refX="0" refY="0" orient="auto" inkscape:stockid="Arrow2Mend">
      <path transform="scale(-0.6,-0.6)" d="M 8.7185878,4.0337352 -2.2072895,0.01601326 8.7185884,-4.0017078 c -1.7454984,2.3720609 -1.7354408,5.6174519 -6e-7,8.035443 z" style="font-size:12px;fill-rule:evenodd;stroke-width:0.625;stroke-linejoin:round" id="path2293" inkscape:connector-curvature="0"/>
    </marker>
    <marker style="overflow:visible" id="marker2287" refX="0" refY="0" orient="auto" inkscape:stockid="TriangleOutS">
      <path transform="scale(0.2,0.2)" style="fill-rule:evenodd;stroke:#000000;stroke-width:1pt;marker-start:none" d="m 5.77,0 -8.65,5 0,-10 8.65,5 z" id="path2289" inkscape:connector-curvature="0"/>
    </marker>
    <marker style="overflow:visible" id="marker2283" refX="0" refY="0" orient="auto" inkscape:stockid="TriangleOutM">
      <path transform="scale(0.4,0.4)" style="fill-rule:evenodd;stroke:#000000;stroke-width:1pt;marker-start:none" d="m 5.77,0 -8.65,5 0,-10 8.65,5 z" id="path2285" inkscape:connector-curvature="0"/>
    </marker>
    <marker style="overflow:visible" id="marker2279" refX="0" refY="0" orient="auto" inkscape:stockid="Arrow1Mend">
      <path transform="matrix(-0.4,0,0,-0.4,-4,0)" style="fill-rule:evenodd;stroke:#000000;stroke-width:1pt;marker-start:none" d="M 0,0 5,-5 -12.5,0 5,5 0,0 z" id="path2281" inkscape:connector-curvature="0"/>
    </marker>
    <marker style="overflow:visible" id="marker5078" refX="0" refY="0" orient="auto" inkscape:stockid="Arrow1Send">
      <path transform="matrix(-0.2,0,0,-0.2,-1.2,0)" style="fill-rule:evenodd;stroke:#000000;stroke-width:1pt;marker-start:none" d="M 0,0 5,-5 -12.5,0 5,5 0,0 z" id="path5080" inkscape:connector-curvature="0"/>
    </marker>
    <marker style="overflow:visible" id="marker5074" refX="0" refY="0" orient="auto" inkscape:stockid="Arrow2Send">
      <path transform="matrix(-0.3,0,0,-0.3,0.69,0)" d="M 8.7185878,4.0337352 -2.2072895,0.01601326 8.7185884,-4.0017078 c -1.7454984,2.3720609 -1.7354408,5.6174519 -6e-7,8.035443 z" style="font-size:12px;fill-rule:evenodd;stroke-width:0.625;stroke-linejoin:round" id="path5076" inkscape:connector-curvature="0"/>
    </marker>
    <marker style="overflow:visible" id="marker5070" refX="0" refY="0" orient="auto" inkscape:stockid="Arrow2Mend">
      <path transform="scale(-0.6,-0.6)" d="M 8.7185878,4.0337352 -2.2072895,0.01601326 8.7185884,-4.0017078 c -1.7454984,2.3720609 -1.7354408,5.6174519 -6e-7,8.035443 z" style="font-size:12px;fill-rule:evenodd;stroke-width:0.625;stroke-linejoin:round" id="path5072" inkscape:connector-curvature="0"/>
    </marker>
    <marker style="overflow:visible" id="marker5066" refX="0" refY="0" orient="auto" inkscape:stockid="TriangleOutS">
      <path transform="scale(0.2,0.2)" style="fill-rule:evenodd;stroke:#000000;stroke-width:1pt;marker-start:none" d="m 5.77,0 -8.65,5 0,-10 8.65,5 z" id="path5068" inkscape:connector-curvature="0"/>
    </marker>
    <marker style="overflow:visible" id="marker5062" refX="0" refY="0" orient="auto" inkscape:stockid="TriangleOutM">
      <path transform="scale(0.4,0.4)" style="fill-rule:evenodd;stroke:#000000;stroke-width:1pt;marker-start:none" d="m 5.77,0 -8.65,5 0,-10 8.65,5 z" id="path5064" inkscape:connector-curvature="0"/>
    </marker>
    <marker style="overflow:visible" id="marker5058" refX="0" refY="0" orient="auto" inkscape:stockid="Arrow1Mend">
      <path transform="matrix(-0.4,0,0,-0.4,-4,0)" style="fill-rule:evenodd;stroke:#000000;stroke-width:1pt;marker-start:none" d="M 0,0 5,-5 -12.5,0 5,5 0,0 z" id="path5060" inkscape:connector-curvature="0"/>
    </marker>
  </defs>
  <sodipodi:namedview id="base" pagecolor="white" bordercolor="#00a0cc" borderopacity="1" gridtolerance="10000" guidetolerance="10" objecttolerance="10" inkscape:pageopacity="0" inkscape:pageshadow="2" inkscape:zoom="3.6203867" inkscape:cx="153.34186" inkscape:cy="77.364067" inkscape:document-units="mm" inkscape:current-layer="g22354" width="90.000004mm" height="55mm" showborder="true" borderlayer="false" inkscape:showpageshadow="false" showgrid="true" grid_units="mm" inkscape:grid-points="true" inkscape:grid-bbox="false" inkscape:window-width="1670" inkscape:window-height="966" inkscape:window-x="104" inkscape:window-y="16" inkscape:object-paths="false" inkscape:guide-bbox="true" showguides="false" units="mm" fit-margin-top="0" fit-margin-left="0" fit-margin-right="0" fit-margin-bottom="0" inkscape:window-maximized="0">
    <inkscape:grid id="GridFromPre046Settings" type="xygrid" originx="0px" originy="0px" spacingx="1mm" spacingy="1mm" color="#0000ff" empcolor="#0000ff" opacity="0.2" empopacity="0.4" empspacing="10" units="mm" visible="true" enabled="true" snapvisiblegridlinesonly="true"/>
  </sodipodi:namedview>
  <metadata id="metadata5453">
    <rdf:RDF>
      <cc:Work rdf:about="">
        <dc:format>image/svg+xml</dc:format>
        <dc:type rdf:resource="http://purl.org/dc/dcmitype/StillImage"/>
        <dc:title/>
      </cc:Work>
    </rdf:RDF>
  </metadata>
  <g inkscape:groupmode="layer" id="layer4" inkscape:label="Frames" style="display:inline" transform="translate(-19.793863,-76.752878)"/>
  <g inkscape:label="Layer 1" inkscape:groupmode="layer" id="layer1" transform="translate(-122.01825,-139.55019)" style="display:inline">
    <rect style="color:#000000;fill:#666666;fill-opacity:1;fill-rule:nonzero;stroke:#000000;stroke-width:1.77199996;stroke-linecap:butt;stroke-linejoin:round;stroke-miterlimit:4;stroke-opacity:1;stroke-dasharray:none;stroke-dashoffset:0;marker:none;visibility:visible;display:inline;overflow:visible" id="rect3251" width="0" height="3.5433071" x="354.33072" y="251.88977" transform="translate(102.2244,62.7973)" ry="0"/>
    <g style="display:inline" id="g4018" transform="matrix(-1,0,0,-1,932.3256,599.256)"/>
    <g style="display:inline" id="g22354" transform="translate(122.2441,207.3719)">
      <path inkscape:connector-curvature="0" style="fill:none;stroke:#000000;stroke-width:3.54330707;stroke-linecap:butt;stroke-linejoin:miter;stroke-miterlimit:4;stroke-opacity:1;stroke-dasharray:none" d="m 33.435518,-20.803751 -28.346457,0" id="path2502"/>
      <text xml:space="preserve" style="font-size:12px;font-style:normal;font-weight:normal;fill:#000000;fill-opacity:1;stroke:none;font-family:Bitstream Vera Sans" x="143.84727" y="-52.126614" id="text5399"><tspan sodipodi:role="line" id="tspan5401" x="143.84727" y="-52.126614"/></text>
      <rect ry="0" y="487.8829" x="337.63879" height="3.5433071" width="0" id="rect2100" style="color:#000000;fill:#666666;fill-opacity:1;fill-rule:nonzero;stroke:#000000;stroke-width:1.77199996;stroke-linecap:butt;stroke-linejoin:round;stroke-miterlimit:4;stroke-opacity:1;stroke-dasharray:none;stroke-dashoffset:0;marker:none;visibility:visible;display:inline;overflow:visible"/>
      <text xml:space="preserve" style="font-size:12px;font-style:normal;font-weight:normal;fill:#000000;fill-opacity:1;stroke:none;font-family:Bitstream Vera Sans" x="136.76065" y="312.83392" id="text2155"><tspan sodipodi:role="line" id="tspan2157" x="136.76065" y="312.83392"/></text>
      <rect ry="0" y="1062.6404" x="5369.1958" height="7.0866141" width="0" id="rect3663" style="color:#000000;fill:#666666;fill-opacity:1;fill-rule:nonzero;stroke:#000000;stroke-width:3.54399991;stroke-linecap:butt;stroke-linejoin:round;stroke-miterlimit:4;stroke-opacity:1;stroke-dasharray:none;stroke-dashoffset:0;marker:none;visibility:visible;display:inline;overflow:visible"/>
      <rect ry="0" y="321.34747" x="351.81259" height="3.5433071" width="0" id="rect2363" style="color:#000000;fill:#666666;fill-opacity:1;fill-rule:nonzero;stroke:#000000;stroke-width:1.77199996;stroke-linecap:butt;stroke-linejoin:round;stroke-miterlimit:4;stroke-opacity:1;stroke-dasharray:none;stroke-dashoffset:0;marker:none;visibility:visible;display:inline;overflow:visible"/>
      <text xml:space="preserve" style="font-size:12px;font-style:normal;font-weight:normal;fill:#000000;fill-opacity:1;stroke:none;font-family:Bitstream Vera Sans" x="136.76064" y="135.66869" id="text2441"><tspan sodipodi:role="line" id="tspan2443" x="136.76064" y="135.66869"/></text>
      <rect ry="0" y="885.47504" x="5369.1953" height="7.0866141" width="0" id="rect2445" style="color:#000000;fill:#666666;fill-opacity:1;fill-rule:nonzero;stroke:#000000;stroke-width:3.54399991;stroke-linecap:butt;stroke-linejoin:round;stroke-miterlimit:4;stroke-opacity:1;stroke-dasharray:none;stroke-dashoffset:0;marker:none;visibility:visible;display:inline;overflow:visible"/>
      <path inkscape:connector-curvature="0" style="fill:none;stroke:#000000;stroke-width:3.54330707;stroke-linecap:butt;stroke-linejoin:miter;stroke-miterlimit:4;stroke-opacity:1;stroke-dasharray:none;display:inline" d="m 182.25431,3.999069 2e-5,7.086606" id="path22316" sodipodi:nodetypes="cc"/>
      <path inkscape:connector-curvature="0" style="fill:none;stroke:#000000;stroke-width:3.54330707;stroke-linecap:butt;stroke-linejoin:miter;stroke-miterlimit:4;stroke-opacity:1;stroke-dasharray:none;display:inline" d="m 182.25433,53.605359 -2e-5,7.08662" id="path22318" sodipodi:nodetypes="cc"/>
      <path inkscape:connector-curvature="0" style="fill:none;stroke:#000000;stroke-width:3.54330707;stroke-linecap:round;stroke-linejoin:bevel;stroke-miterlimit:4;stroke-opacity:1;stroke-dasharray:none" d="m 182.25433,53.605359 7.0866,-3.5433 -14.17322,-7.08662 14.17322,-7.08662 -14.17322,-7.086624 14.17322,-7.0866 -14.17322,-7.08662 7.08662,-3.5433" id="path22320" sodipodi:nodetypes="cccccccc"/>
      <path inkscape:connector-curvature="0" style="fill:none;stroke:#000000;stroke-width:3.54330707;stroke-linecap:butt;stroke-linejoin:miter;stroke-miterlimit:4;stroke-opacity:1;stroke-dasharray:none;display:inline" d="m 100.75835,-20.803751 -17.716595,-3.35e-4" id="path22322" sodipodi:nodetypes="cc"/>
      <path inkscape:connector-curvature="0" style="fill:none;stroke:#000000;stroke-width:3.54330707;stroke-linecap:butt;stroke-linejoin:miter;stroke-miterlimit:4;stroke-opacity:1;stroke-dasharray:none;display:inline" d="m 182.25425,60.691977 0,24.803149 -177.165189,3.35e-4" id="path22324" sodipodi:nodetypes="ccc"/>
      <text sodipodi:linespacing="100%" id="text22356" y="42.979713" x="112.82133" style="font-size:24px;font-style:normal;font-variant:normal;font-weight:normal;font-stretch:normal;text-align:start;line-height:100%;writing-mode:lr-tb;text-anchor:start;fill:#000000;fill-opacity:1;stroke:none;font-family:Times New Roman" xml:space="preserve"><tspan y="42.979713" x="112.82133" id="tspan22358" sodipodi:role="line"><tspan id="tspan22360" style="font-size:32px;font-style:italic;font-variant:normal;font-weight:normal;font-stretch:normal;text-align:start;line-height:100%;writing-mode:lr-tb;text-anchor:start;font-family:Times New Roman">Gdx</tspan></tspan></text>
      <path inkscape:connector-curvature="0" style="fill:none;stroke:#000000;stroke-width:3.54330707;stroke-linecap:butt;stroke-linejoin:miter;stroke-miterlimit:4;stroke-opacity:1;stroke-dasharray:none;display:inline" d="m 33.435465,-20.803981 3.543278,-4e-5" id="path22288" sodipodi:nodetypes="cc"/>
      <path inkscape:connector-curvature="0" style="fill:none;stroke:#000000;stroke-width:3.54330707;stroke-linecap:butt;stroke-linejoin:miter;stroke-miterlimit:4;stroke-opacity:1;stroke-dasharray:none;display:inline" d="m 79.498427,-20.804021 3.54332,2e-5" id="path22290" sodipodi:nodetypes="cc"/>
      <path inkscape:connector-curvature="0" style="fill:none;stroke:#000000;stroke-width:3.54330707;stroke-linecap:round;stroke-linejoin:bevel;stroke-miterlimit:4;stroke-opacity:1;stroke-dasharray:none" d="m 79.498427,-20.804021 -3.5433,-7.0866 -7.08662,14.17322 -7.08662,-14.17322 -7.086624,14.17322 -7.0866,-14.17322 -7.08662,14.17322 -3.5433,-7.08662" id="path22292" sodipodi:nodetypes="cccccccc"/>
      <path sodipodi:type="arc" style="fill:#ffffff;fill-opacity:1;stroke:#000000;stroke-width:1.77165353;stroke-miterlimit:4;stroke-opacity:1;stroke-dasharray:none;display:inline" id="path22326" sodipodi:cx="95.669289" sodipodi:cy="77.952759" sodipodi:rx="1.7716535" sodipodi:ry="1.7716535" d="m 97.440942,77.952759 c 0,0.978457 -0.793196,1.771653 -1.771653,1.771653 -0.978458,0 -1.771654,-0.793196 -1.771654,-1.771653 0,-0.978457 0.793196,-1.771654 1.771654,-1.771654 0.978457,0 1.771653,0.793197 1.771653,1.771654 z" transform="matrix(2,0,0,2,-186.24947,-70.41006)"/>
      <path sodipodi:type="arc" style="fill:#ffffff;fill-opacity:1;stroke:#000000;stroke-width:1.77165353;stroke-miterlimit:4;stroke-opacity:1;stroke-dasharray:none;display:inline" id="path22328" sodipodi:cx="95.669289" sodipodi:cy="77.952759" sodipodi:rx="1.7716535" sodipodi:ry="1.7716535" d="m 97.440942,77.952759 c 0,0.978457 -0.793196,1.771653 -1.771653,1.771653 -0.978458,0 -1.771654,-0.793196 -1.771654,-1.771653 0,-0.978457 0.793196,-1.771654 1.771654,-1.771654 0.978457,0 1.771653,0.793197 1.771653,1.771654 z" transform="matrix(2,0,0,2,-186.24947,-176.70923)"/>
      <text sodipodi:linespacing="100%" id="text22435" y="-45.602962" x="35.152054" style="font-size:24px;font-style:normal;font-variant:normal;font-weight:normal;font-stretch:normal;text-align:start;line-height:100%;writing-mode:lr-tb;text-anchor:start;fill:#000000;fill-opacity:1;stroke:none;font-family:Times New Roman" xml:space="preserve"><tspan y="-45.602962" x="35.152054" id="tspan22437" sodipodi:role="line"><tspan id="tspan22439" style="font-size:32px;font-style:italic;font-variant:normal;font-weight:normal;font-stretch:normal;text-align:start;line-height:100%;writing-mode:lr-tb;text-anchor:start;font-family:Times New Roman">Rdx</tspan></tspan></text>
      <g style="display:inline" id="g2121" transform="matrix(2,0,0,2,-178.65937,187.21587)"/>
      <g transform="matrix(2,0,0,2,-379.03687,120.06997)" style="display:inline" id="g2143"/>
      <path inkscape:connector-curvature="0" sodipodi:nodetypes="ccccccc" d="m 157.45127,-20.803751 -7.0866,0 c -0.0421,-16.523838 -14.1735,-16.582538 -14.17324,0 -0.0418,-16.465118 -14.25686,-16.465118 -14.21504,0 -2.6e-4,-16.582518 0.0418,0 0.0418,0 -0.0421,-16.523818 -14.17322,-16.523818 -14.17322,0 l -7.08663,0" style="fill:none;stroke:#000000;stroke-width:3.54399943;stroke-linecap:square;stroke-linejoin:round;stroke-miterlimit:4;stroke-opacity:1;stroke-dasharray:none" id="path4215"/>
      <rect ry="0" y="376.04669" x="1330.2858" height="7.0866141" width="0" id="rect5230" style="color:#000000;fill:#666666;fill-opacity:1;fill-rule:nonzero;stroke:#000000;stroke-width:3.54399991;stroke-linecap:butt;stroke-linejoin:round;stroke-miterlimit:4;stroke-opacity:1;stroke-dasharray:none;stroke-dashoffset:0;marker:none;visibility:visible;display:inline;overflow:visible"/>
      <g transform="matrix(-2,0,0,-2,2281.8271,945.18457)" id="g5255" style="display:inline"/>
      <path transform="matrix(1.338662,0,0,1.338662,-173.69137,-143.97113)" d="m 267.66832,92.007843 c 0,0.978457 -0.7932,1.771654 -1.77165,1.771654 -0.97846,0 -1.77166,-0.793197 -1.77166,-1.771654 0,-0.978457 0.7932,-1.771654 1.77166,-1.771654 0.97845,0 1.77165,0.793197 1.77165,1.771654 z" sodipodi:ry="1.7716535" sodipodi:rx="1.7716535" sodipodi:cy="92.007843" sodipodi:cx="265.89667" id="path6613" style="color:#000000;fill:#000000;fill-opacity:1;fill-rule:nonzero;stroke:#000000;stroke-width:2.64690256;stroke-linecap:square;stroke-linejoin:miter;stroke-miterlimit:4;stroke-opacity:1;stroke-dasharray:none;stroke-dashoffset:0;marker:none;visibility:visible;display:inline;overflow:visible" sodipodi:type="arc"/>
      <path inkscape:connector-curvature="0" style="fill:none;stroke:#000000;stroke-width:3.54330707;stroke-linecap:butt;stroke-linejoin:miter;stroke-miterlimit:4;stroke-opacity:1;stroke-dasharray:none" d="m 182.25442,3.999398 0,-24.803149" id="path6615"/>
      <path inkscape:connector-curvature="0" style="fill:none;stroke:#000000;stroke-width:3.54330707;stroke-linecap:butt;stroke-linejoin:miter;stroke-miterlimit:4;stroke-opacity:1;stroke-dasharray:none" d="m 157.45127,-20.803751 53.1496,0 24.80315,0.0039 0,35.43307" id="path6617" sodipodi:nodetypes="cccc"/>
      <g style="display:inline" transform="matrix(0,2,-2,0,683.81523,-281.94153)" id="g6619">
        <g id="g6621" transform="translate(-56.01883,133.6234)">
          <path inkscape:connector-curvature="0" id="path6623" d="m 204.30623,90.582233 7.08661,0" style="fill:none;stroke:#000000;stroke-width:1.77165294;stroke-linecap:square;stroke-linejoin:miter;stroke-miterlimit:4;stroke-opacity:1;stroke-dasharray:none" sodipodi:nodetypes="cc"/>
          <path inkscape:connector-curvature="0" id="path6625" d="m 214.93615,90.582233 7.08661,0" style="fill:none;stroke:#000000;stroke-width:1.77165401;stroke-linecap:square;stroke-linejoin:miter;stroke-miterlimit:4;stroke-opacity:1;stroke-dasharray:none" sodipodi:nodetypes="cc"/>
        </g>
        <path inkscape:connector-curvature="0" style="fill:none;stroke:#000000;stroke-width:1.7716527;stroke-linecap:square;stroke-linejoin:miter;stroke-miterlimit:4;stroke-opacity:1;stroke-dasharray:none" d="m 155.37397,217.11899 0,14.17322" id="path6627" sodipodi:nodetypes="cc"/>
        <path inkscape:connector-curvature="0" style="fill:none;stroke:#000000;stroke-width:1.77165353;stroke-linecap:square;stroke-linejoin:miter;stroke-miterlimit:4;stroke-opacity:1;stroke-dasharray:none" d="m 158.91728,217.11899 0,14.17322" id="path6629" sodipodi:nodetypes="cc"/>
      </g>
      <path inkscape:connector-curvature="0" style="fill:none;stroke:#000000;stroke-width:3.54330707;stroke-linecap:butt;stroke-linejoin:miter;stroke-miterlimit:4;stroke-opacity:1;stroke-dasharray:none" d="m 235.40402,50.06633 0,35.43307 -53.1496,-0.004" id="path6631" sodipodi:nodetypes="ccc"/>
      <path inkscape:connector-curvature="0" style="fill:none;stroke:#000000;stroke-width:3.54330707;stroke-linecap:butt;stroke-linejoin:miter;stroke-miterlimit:4;stroke-opacity:1;stroke-dasharray:none" d="m 235.40404,-20.799816 35.43307,0" id="path6633"/>
      <path inkscape:connector-curvature="0" style="fill:none;stroke:#000000;stroke-width:3.54330707;stroke-linecap:butt;stroke-linejoin:miter;stroke-miterlimit:4;stroke-opacity:1;stroke-dasharray:none" d="m 235.40404,85.499395 35.43307,0" id="path6635"/>
      <path transform="matrix(2,0,0,2,79.49853,-176.70533)" d="m 97.440942,77.952759 c 0,0.978457 -0.793196,1.771653 -1.771653,1.771653 -0.978458,0 -1.771654,-0.793196 -1.771654,-1.771653 0,-0.978457 0.793196,-1.771654 1.771654,-1.771654 0.978457,0 1.771653,0.793197 1.771653,1.771654 z" sodipodi:ry="1.7716535" sodipodi:rx="1.7716535" sodipodi:cy="77.952759" sodipodi:cx="95.669289" id="path6637" style="fill:#ffffff;fill-opacity:1;stroke:#000000;stroke-width:1.77165353;stroke-miterlimit:4;stroke-opacity:1;stroke-dasharray:none;display:inline" sodipodi:type="arc"/>
      <path sodipodi:type="arc" style="color:#000000;fill:#000000;fill-opacity:1;fill-rule:nonzero;stroke:#000000;stroke-width:2.64690256;stroke-linecap:square;stroke-linejoin:miter;stroke-miterlimit:4;stroke-opacity:1;stroke-dasharray:none;stroke-dashoffset:0;marker:none;visibility:visible;display:inline;overflow:visible" id="path6639" sodipodi:cx="265.89667" sodipodi:cy="92.007843" sodipodi:rx="1.7716535" sodipodi:ry="1.7716535" d="m 267.66832,92.007843 c 0,0.978457 -0.7932,1.771654 -1.77165,1.771654 -0.97846,0 -1.77166,-0.793197 -1.77166,-1.771654 0,-0.978457 0.7932,-1.771654 1.77166,-1.771654 0.97845,0 1.77165,0.793197 1.77165,1.771654 z" transform="matrix(1.338662,0,0,1.338662,-120.54167,-143.96723)"/>
      <path transform="matrix(1.338662,0,0,1.338662,-120.54167,-37.66801)" d="m 267.66832,92.007843 c 0,0.978457 -0.7932,1.771654 -1.77165,1.771654 -0.97846,0 -1.77166,-0.793197 -1.77166,-1.771654 0,-0.978457 0.7932,-1.771654 1.77166,-1.771654 0.97845,0 1.77165,0.793197 1.77165,1.771654 z" sodipodi:ry="1.7716535" sodipodi:rx="1.7716535" sodipodi:cy="92.007843" sodipodi:cx="265.89667" id="path6641" style="color:#000000;fill:#000000;fill-opacity:1;fill-rule:nonzero;stroke:#000000;stroke-width:2.64690256;stroke-linecap:square;stroke-linejoin:miter;stroke-miterlimit:4;stroke-opacity:1;stroke-dasharray:none;stroke-dashoffset:0;marker:none;visibility:visible;display:inline;overflow:visible" sodipodi:type="arc"/>
      <path sodipodi:type="arc" style="color:#000000;fill:#000000;fill-opacity:1;fill-rule:nonzero;stroke:#000000;stroke-width:2.64690256;stroke-linecap:square;stroke-linejoin:miter;stroke-miterlimit:4;stroke-opacity:1;stroke-dasharray:none;stroke-dashoffset:0;marker:none;visibility:visible;display:inline;overflow:visible" id="path6643" sodipodi:cx="265.89667" sodipodi:cy="92.007843" sodipodi:rx="1.7716535" sodipodi:ry="1.7716535" d="m 267.66832,92.007843 c 0,0.978457 -0.7932,1.771654 -1.77165,1.771654 -0.97846,0 -1.77166,-0.793197 -1.77166,-1.771654 0,-0.978457 0.7932,-1.771654 1.77166,-1.771654 0.97845,0 1.77165,0.793197 1.77165,1.771654 z" transform="matrix(1.338662,0,0,1.338662,-173.69137,-37.67194)"/>
      <path sodipodi:type="arc" style="fill:#ffffff;fill-opacity:1;stroke:#000000;stroke-width:1.77165353;stroke-miterlimit:4;stroke-opacity:1;stroke-dasharray:none;display:inline" id="path6645" sodipodi:cx="95.669289" sodipodi:cy="77.952759" sodipodi:rx="1.7716535" sodipodi:ry="1.7716535" d="m 97.440942,77.952759 c 0,0.978457 -0.793196,1.771653 -1.771653,1.771653 -0.978458,0 -1.771654,-0.793196 -1.771654,-1.771653 0,-0.978457 0.793196,-1.771654 1.771654,-1.771654 0.978457,0 1.771653,0.793197 1.771653,1.771654 z" transform="matrix(2,0,0,2,79.49853,-70.40613)"/>
      <text xml:space="preserve" style="font-size:24px;font-style:normal;font-variant:normal;font-weight:normal;font-stretch:normal;text-align:start;line-height:100%;writing-mode:lr-tb;text-anchor:start;fill:#000000;fill-opacity:1;stroke:none;font-family:Times New Roman" x="106.01819" y="-45.602962" id="text7537" sodipodi:linespacing="100%"><tspan sodipodi:role="line" id="tspan7539" x="106.01819" y="-45.602962"><tspan style="font-size:32px;font-style:italic;font-variant:normal;font-weight:normal;font-stretch:normal;text-align:start;line-height:100%;writing-mode:lr-tb;text-anchor:start;font-family:Times New Roman" id="tspan7541">Ldx</tspan></tspan></text>
      <text xml:space="preserve" style="font-size:24px;font-style:normal;font-variant:normal;font-weight:normal;font-stretch:normal;text-align:start;line-height:100%;writing-mode:lr-tb;text-anchor:start;fill:#000000;fill-opacity:1;stroke:none;font-family:Times New Roman" x="258.66388" y="42.979713" id="text7543" sodipodi:linespacing="100%"><tspan sodipodi:role="line" id="tspan7545" x="258.66388" y="42.979713"><tspan style="font-size:32px;font-style:italic;font-variant:normal;font-weight:normal;font-stretch:normal;text-align:start;line-height:100%;writing-mode:lr-tb;text-anchor:start;font-family:Times New Roman" id="tspan7547">Cdx</tspan></tspan></text>
    </g>
  </g>
</svg>